<?xml version="1.0" encoding="UTF-8"?>
<svg id="Ebene_2" data-name="Ebene 2" xmlns="http://www.w3.org/2000/svg" viewBox="0 0 588.54 181.01">
  <defs>
    <style>
      .cls-1 {
        fill: #a05a2c;
      }
    </style>
  </defs>
  <g id="Ebene_1-2" data-name="Ebene 1">
    <g>
      <path class="cls-1" d="M462.03,15.1l5.28-.34c5.16-19.09,27.36-19.79,30.75.31l6.36-.69c4.09-19,27.61-18.8,30.39.7l7.01.08c2.89-11.42,15-20.7,25.58-11.26,2.86,2.56,5.82,10.51,6.35,10.87,1.57,1.05,5.82-.47,9.73,2.26,5.47,3.82,4.75,11.17,4.88,17.14.83,38.29-1.32,76.82-.3,115.15-.85,9.86-6.66,17.39-16.87,18.32h-138.81c-13.87-1.2-16.45-11.62-17.59-23.59-.35-3.66.6-8.39-.17-11.79s-5.79-5.18-6.54-9.92c-2.04-12.85,9.3-13.08,11.21-1.08,4.87-2.5,4.05-8.96,3.64-13.73-.25-2.98-3.85-22.12-5.53-22.89-7.34,14.04-25.9,42.16-42.96,43.93-8.34.87-17.16-5.04-18.92-13.28-1.04-.2-.96-.15-1.55.48-7.11,7.52-13.13,14.53-25,12.91-16.93-2.32-5.45-31.44-4.19-41.79-1.94-.45-1.31.57-1.93,1.41-2.59,3.5-5.23,7.33-8.55,10.18-2.7,2.32-8.23,4.73-10.18,7.04-2.84,3.38-3.89,10.91-8.09,15.48-9.04,9.85-27.33,9.01-28.99-6.09-1.46-13.37,10.6-51.63,29.52-40.63,7.55,4.39,7.47,14.54,7.99,21.95.08,1.11-.58,2.16,1.12,1.85,9.6-8.38,22.67-22.36,24.37-35.53.2-1.53-.06-.95-1.09-1.1-4.41-.63-19.48,3.05-21.78-.73-.62-1.02-.67-3.55-.01-4.53,1.74-2.64,20.96-1.1,25.08-1.49,1.37-1.08,3.41-26.89,11.67-17.14,3.09,3.64-1.01,12.01-1.1,16.41,5.21,1.18,16.69-2.77,20.66.71,1.62,1.42,1.32,3.84-.06,5.26-3.48,3.6-21.86,1.12-23.25,2.98-3.03,10.57-6.33,21.18-8.39,32.01-1.07,5.65-3.97,20.58-1.97,25.4,1.77,4.27,8.42,1.2,11.28-.42,18.5-10.43,12.63-35.22,31.79-45.31,8.26-4.35,17.17-1.49,16.42,8.88-.88,12.28-16.64,21.4-26.15,27,6.15,21.29,24.97,5.89,33.64-4.58,7.69-9.28,13.19-20.64,19.21-31,.1-13.83-1.55-29.29-.47-43.02.79-10.03,4.99-16.83,15.81-17.13,5.09-19.12,27.79-19.88,30.72.33ZM565.52,15.11c-2.13-10.7-12.83-10.09-15,0h15ZM454.52,15.11c-1.04-9.99-13.09-10.23-13.5,0h13.5ZM477.02,15.11h13.5c-.99-9.79-13.11-10.33-13.5,0ZM513.02,15.11h14.25c-1.12-9.87-13.36-10.53-14.25,0ZM431.2,23.4c-5.61-1.2-5.68,5.18-5.96,9.25-.81,11.74.95,24.01.76,35.76,7.69,3.85,1.59,7.65,1.48,11.32-.13,4.35,3.48,15.13,4.32,20.44,1.17,7.4,2.45,15.64-.73,22.76-1.28,2.87-5.41,5.68-5.79,7.69-.82,4.29-.27,20.66,1.65,24.48s6.15,4.8,9.93,5.05h132.06c5-.55,9.45-3.19,10.1-8.61,1.01-8.35.38-21.8.43-30.74.16-28.58.16-57.51-.52-85.89-.09-3.62,2.02-7.31-.98-10.91-2.22-1.76-5.77.05-8.3.1-6.62.15-13.29-.18-19.9-.03-1.29,5.21,10.04,8.27,4.93,12.01-4.25,3.11-9.96-3.62-11.82-7.02-1.1-2.03-.77-5.32-3.23-5.75l-28.13.76c-.4,4.69,9.21,7.8,6.07,11.65-3.76,4.61-10.72-2.66-12.45-6.42-1-2.18-.55-5.59-2.99-5.99l-27.38.77c1.22,1.65,2.03,4.22,3.23,5.74,1.06,1.35,5.6,2.53,2.84,5.9-4.85,5.92-14.88-6.93-13.6-12.37l-27.72.72c.12,4.49,8.98,8.09,6.07,11.65-4.89,5.98-14.93-7.52-14.39-12.34ZM297.02,99.58c1.51-6.58-2.6-29.18-12.4-17.97-6.8,7.78,3.23,19.35,12.4,17.97ZM374.76,95.58c2.74-2.66,8.93-11.1,7.67-14.93-.37-.87-1.27-1.44-2.14-1.7-7.31-2.15-18.08,17.35-16.14,23.61,3.56-2.25,7.55-4.01,10.62-6.99ZM279.01,97.34c-2.23-.28-2.27,2.17-2.64,3.69-.97,3.98-2.19,16.23,1.61,18.65,7.42,4.74,16.87-6.51,17.55-13.38-6.78.22-13.72-2.56-16.51-8.97Z"/>
      <path class="cls-1" d="M60.02,104.81l11.87-29.66c4.28-9.63,19.23-40.65,26.75-45.85,6.25-4.31,12.83.72,11.64,7.85-4.57,17.75-10.19,35.36-14.04,53.29-2.07,9.65-8.49,42.21-4.02,49.72.57.96,3.37,1.64,3.67,3.24.36,1.91-2.45,5.36-4.75,5.56-12.64,1.11-10.97-24.13-10.04-31.74,3.32-27.03,14.25-53.29,20.15-79.71-4.82,4.78-8.83,12.13-12.12,18.19-7.63,14.01-15.37,31.03-20.47,46.13-1.33,3.93-6.66,25.06-8.22,26.19-4.96,3.59-7.92-3.3-8.6-7.24-2.65-15.32.49-33.61-1.61-49.23l.03-28.06-9.39,36.6c-2.98,13.38-5.02,27.09-8.2,40.42-2.35,9.86-6.27,30.97-20.69,28.06-16.58-3.35-12.35-30.67-8.41-42.11,1.22-3.54,5.05-15.96,10.7-12.53,3.42,2.08-.53,6.73-1.3,9.2-2.71,8.74-4.21,19.83-3.22,28.95,1.72,15.79,8.83,2.48,11.05-4.7,5.66-18.39,8.37-40.28,13.18-59.38,1.96-7.81,6.98-30.69,11.04-36.09s10.36-3.93,13.04,1.94c.57,1.26,1.95,5.97,1.95,7.02v63.92Z"/>
      <path class="cls-1" d="M240.03,130.22c1.13.17.96-1.31,1.25-2.1,8.69-23.45,3.41-79.09,22.74-95.46,4.7-3.99,11.47-5.43,15.34.42,5.95,8.97-2.23,24.04-8.95,30.63-2.82,2.77-11.13,7.01-12.05,9.67-2.58,7.46-2.25,20.39-3.44,28.72-1.01,7.09-6.18,41.34-10.72,44.62-7.98,5.78-13.28-13.16-14.46-17.84-6.42-25.43-5.85-53.39-7.73-79.39l-7.14,29.87c-2.33,17.57-8.89,36.58-9.37,54.26-.1,3.58,2.07,6.04,1.41,9.55-4.03,4.29-10.95,1.64-12.57-3.69-2.14-7.05,3.58-29.51,5.4-37.82,4.95-22.58,11.17-45.02,17.2-67.33,1.84-5.18,6.82-8.07,11.13-3.2,2.18,2.47,2.57,6.53,2.95,9.77,1.82,15.51,1.52,31.52,3.04,47.05,1.39,14.17,3.47,28.27,5.98,42.26ZM259.53,64.44c.82.82,6.36-5.08,7.13-5.97,3.78-4.36,10.67-15.9,8.06-21.5-2.77-5.94-9.34,6.07-10.49,8.62-2.63,5.84-3.38,12.65-4.7,18.86Z"/>
      <path class="cls-1" d="M137.26,120.51c-10.36,11.73-26.22,10.33-27.73-7.11-.67-7.76,3.15-28.83,6.91-35.69,2.19-4,8.29-4.26,8.84-.14.51,3.85-5.04,19.2-5.81,24.84-1.25,9.17-.9,25.11,11.8,14.75,10.92-8.9,11.01-23.75,14.61-36.27.94-3.28,2.7-9.36,7.34-8.11,5.65,1.53,1.97,12.43,1.07,16.49-6.41,29.19-13.97,58.19-19.32,87.64-2.35,7.84-12.32,3.34-11.16-4.4,2.22-14.89,10.33-33.27,13.27-48.82.2-1.06.25-2.11.18-3.18Z"/>
      <path class="cls-1" d="M454.9,63.7h100.5c2.37,0,3.68,6.73.75,6.73h-101.25c-1.97,0-2.85-5.75,0-6.73Z"/>
      <path class="cls-1" d="M455.65,92.1h98.25c2.37,0,2.37,6.73,0,6.73h-99c-.41,0-2.34-2.5-2.37-3.36l3.12-3.37Z"/>
      <path class="cls-1" d="M454.9,127.24c-3.28-.92-3.02-5.98.77-6.71l73.86.35c2.19,1.07,2.35,6.36-.38,6.36h-74.25Z"/>
    </g>
  </g>
</svg>